<?xml version="1.0" standalone="no"?>
<!DOCTYPE svg PUBLIC "-//W3C//DTD SVG 20010904//EN"
 "http://www.w3.org/TR/2001/REC-SVG-20010904/DTD/svg10.dtd">
<svg version="1.0" xmlns="http://www.w3.org/2000/svg"
 width="512.000000pt" height="512.000000pt" viewBox="0 0 512.000000 512.000000"
 preserveAspectRatio="xMidYMid meet">
<metadata>
Created by potrace 1.15, written by Peter Selinger 2001-2017
</metadata>
<g transform="translate(0.000000,512.000000) scale(0.100000,-0.100000)"
fill="#000000" stroke="none">
<path d="M805 5114 c-11 -2 -44 -9 -74 -15 -253 -51 -512 -260 -640 -516 -53
-106 -53 -114 2 -107 104 12 798 64 864 64 127 0 101 31 400 -470 110 -184
336 -562 502 -840 166 -278 382 -639 479 -802 111 -186 183 -297 193 -298 9 0
222 49 475 110 252 60 639 153 859 205 219 53 401 97 403 99 2 2 -127 188
-287 414 -159 226 -295 420 -301 432 -14 27 7 54 54 69 61 19 890 152 913 146
48 -12 88 -56 407 -454 l67 -84 -3 644 -3 644 -27 83 c-103 318 -353 563 -664
654 l-79 23 -1760 1 c-968 1 -1769 0 -1780 -2z"/>
<path d="M440 4349 c-228 -21 -421 -38 -427 -38 -9 -1 -13 -20 -13 -60 0 -67
0 -66 210 -496 67 -137 146 -299 175 -360 29 -60 99 -204 155 -320 141 -289
252 -519 315 -650 29 -60 103 -213 164 -339 61 -126 111 -231 111 -235 0 -3 8
-16 18 -29 l18 -23 189 45 c553 131 908 217 916 222 20 12 4 50 -94 220 -57
99 -263 454 -457 789 -195 336 -445 768 -556 960 l-203 350 -53 1 c-29 1 -240
-15 -468 -37z"/>
<path d="M2 2214 l3 -1439 23 -79 c91 -311 335 -560 654 -664 l83 -27 1755 -3
c1181 -2 1775 1 1816 8 191 32 356 121 504 269 146 147 225 289 266 481 9 45
14 137 14 294 0 213 -1 228 -17 221 -33 -13 -1181 -425 -1606 -576 -281 -100
-324 -101 -403 -17 -48 50 -227 359 -565 971 l-114 207 -30 -6 c-16 -4 -210
-53 -430 -111 -840 -219 -843 -220 -920 -184 -64 29 -99 77 -163 216 -33 72
-77 166 -97 210 -21 44 -90 195 -155 335 -65 140 -137 296 -160 345 -23 50
-134 290 -247 535 -113 245 -207 447 -209 449 -3 3 -3 -643 -2 -1435z"/>
<path d="M4475 3434 c-66 -12 -216 -40 -334 -60 -134 -24 -215 -43 -218 -51
-3 -7 89 -141 204 -298 114 -158 232 -320 261 -361 29 -41 59 -74 67 -74 11 0
596 141 648 156 13 4 17 17 17 59 0 53 -1 56 -98 177 -54 68 -156 197 -226
288 -71 91 -135 171 -144 178 -20 15 -32 15 -177 -14z"/>
<path d="M4847 2480 c-136 -37 -250 -70 -253 -73 -3 -3 46 -74 108 -159 63
-84 183 -245 266 -357 l152 -204 0 432 c0 339 -3 431 -12 430 -7 -1 -125 -32
-261 -69z"/>
<path d="M4070 2295 c-285 -75 -545 -143 -1205 -315 -121 -31 -219 -61 -218
-66 2 -9 140 -249 404 -701 68 -116 139 -233 157 -258 31 -44 35 -47 70 -42
20 2 143 40 272 85 129 44 487 166 795 270 308 105 585 199 615 210 38 13 56
25 58 38 2 12 -34 69 -90 146 -51 69 -149 204 -218 298 -223 306 -305 414
-315 416 -5 1 -152 -36 -325 -81z"/>
</g>
</svg>
